<svg xmlns="http://www.w3.org/2000/svg" width="80" height="80" viewBox="0 0 80 80" fill="none">
  <!-- Background shape (20% opacity) -->
  <path d="M40 32.5L27.5 20L40 7.5L52.5 20L40 32.5ZM27.5 60L40 72.5L52.5 60L40 47.5L27.5 60ZM60 27.5L47.5 40L60 52.5L72.5 40L60 27.5ZM20 27.5L7.5 40L20 52.5L32.5 40L20 27.5Z" fill="rgb(62, 105, 220)" fill-opacity="0.2"/>
  <!-- Foreground icon -->
  <path d="M40.7332 36.7707C40.9654 37.0032 41.2411 37.1876 41.5446 37.3134C41.8481 37.4392 42.1734 37.5039 42.502 37.5039C42.8305 37.5039 43.1558 37.4392 43.4593 37.3134C43.7628 37.1876 44.0385 37.0032 44.2707 36.7707L56.7707 24.2707C57.0032 24.0385 57.1876 23.7628 57.3134 23.4593C57.4392 23.1558 57.5039 22.8305 57.5039 22.502C57.5039 22.1734 57.4392 21.8481 57.3134 21.5446C57.1876 21.2411 57.0032 20.9654 56.7707 20.7332L44.2707 8.23322C44.0385 8.00078 43.7628 7.81638 43.4593 7.69057C43.1558 7.56476 42.8305 7.5 42.502 7.5C42.1734 7.5 41.8481 7.56476 41.5446 7.69057C41.2411 7.81638 40.9654 8.00078 40.7332 8.23322L28.2332 20.7332C28.0008 20.9654 27.8164 21.2411 27.6906 21.5446C27.5648 21.8481 27.5 22.1734 27.5 22.502C27.5 22.8305 27.5648 23.1558 27.6906 23.4593C27.8164 23.7628 28.0008 24.0385 28.2332 24.2707L40.7332 36.7707ZM42.502 13.5363L51.4676 22.502L42.502 31.4676L33.5363 22.502L42.502 13.5363ZM44.2707 48.2238C44.0385 47.9914 43.7628 47.807 43.4593 47.6812C43.1558 47.5554 42.8305 47.4906 42.502 47.4906C42.1734 47.4906 41.8481 47.5554 41.5446 47.6812C41.2411 47.807 40.9654 47.9914 40.7332 48.2238L28.2332 60.7238C28.0008 60.956 27.8164 61.2318 27.6906 61.5352C27.5648 61.8387 27.5 62.1641 27.5 62.4926C27.5 62.8211 27.5648 63.1465 27.6906 63.4499C27.8164 63.7534 28.0008 64.0292 28.2332 64.2613L40.7332 76.7613C40.9654 76.9938 41.2411 77.1782 41.5446 77.304C41.8481 77.4298 42.1734 77.4946 42.502 77.4946C42.8305 77.4946 43.1558 77.4298 43.4593 77.304C43.7628 77.1782 44.0385 76.9938 44.2707 76.7613L56.7707 64.2613C57.0032 64.0292 57.1876 63.7534 57.3134 63.4499C57.4392 63.1465 57.5039 62.8211 57.5039 62.4926C57.5039 62.1641 57.4392 61.8387 57.3134 61.5352C57.1876 61.2318 57.0032 60.956 56.7707 60.7238L44.2707 48.2238ZM42.502 71.4676L33.5363 62.502L42.502 53.5363L51.4676 62.502L42.502 71.4676ZM76.7707 40.7332L64.2707 28.2332C64.0385 28.0008 63.7628 27.8164 63.4593 27.6906C63.1558 27.5648 62.8305 27.5 62.502 27.5C62.1734 27.5 61.8481 27.5648 61.5446 27.6906C61.2411 27.8164 60.9654 28.0008 60.7332 28.2332L48.2332 40.7332C48.0008 40.9654 47.8164 41.2411 47.6906 41.5446C47.5648 41.8481 47.5 42.1734 47.5 42.502C47.5 42.8305 47.5648 43.1558 47.6906 43.4593C47.8164 43.7628 48.0008 44.0385 48.2332 44.2707L60.7332 56.7707C60.9654 57.0032 61.2411 57.1876 61.5446 57.3134C61.8481 57.4392 62.1734 57.5039 62.502 57.5039C62.8305 57.5039 63.1558 57.4392 63.4593 57.3134C63.7628 57.1876 64.0385 57.0032 64.2707 56.7707L76.7707 44.2707C77.0032 44.0385 77.1876 43.7628 77.3134 43.4593C77.4392 43.1558 77.5039 42.8305 77.5039 42.502C77.5039 42.1734 77.4392 41.8481 77.3134 41.5446C77.1876 41.2411 77.0032 40.9654 76.7707 40.7332ZM62.502 51.4676L53.5363 42.502L62.502 33.5363L71.4676 42.502L62.502 51.4676ZM36.7707 40.7332L24.2707 28.2332C24.0385 28.0008 23.7628 27.8164 23.4593 27.6906C23.1558 27.5648 22.8305 27.5 22.502 27.5C22.1734 27.5 21.8481 27.5648 21.5446 27.6906C21.2411 27.8164 20.9654 28.0008 20.7332 28.2332L8.23322 40.7332C8.00078 40.9654 7.81638 41.2411 7.69057 41.5446C7.56476 41.8481 7.5 42.1734 7.5 42.502C7.5 42.8305 7.56476 43.1558 7.69057 43.4593C7.81638 43.7628 8.00078 44.0385 8.23322 44.2707L20.7332 56.7707C20.9654 57.0032 21.2411 57.1876 21.5446 57.3134C21.8481 57.4392 22.1734 57.5039 22.502 57.5039C22.8305 57.5039 23.1558 57.4392 23.4593 57.3134C23.7628 57.1876 24.0385 57.0032 24.2707 56.7707L36.7707 44.2707C37.0032 44.0385 37.1876 43.7628 37.3134 43.4593C37.4392 43.1558 37.5039 42.8305 37.5039 42.502C37.5039 42.1734 37.4392 41.8481 37.3134 41.5446C37.1876 41.2411 37.0032 40.9654 36.7707 40.7332ZM22.502 51.4676L13.5363 42.502L22.502 33.5363L31.4676 42.502L22.502 51.4676Z" fill="rgb(62, 105, 220)"/>
</svg>
