<svg xmlns="http://www.w3.org/2000/svg" width="80" height="80" viewBox="0 0 80 80" fill="none">
  <!-- Background paper plane (20% opacity) -->
  <path d="M72.3981 13.1771L54.2043 73.1771C54.0655 73.666 53.7809 74.101 53.3885 74.424C52.9962 74.747 52.5147 74.9428 52.0082 74.9853C51.5018 75.0277 50.9944 74.9147 50.5538 74.6615C50.1131 74.4083 49.7601 74.0267 49.5418 73.5678L36.245 46.2459L8.92622 32.949C8.46726 32.7307 8.08573 32.3777 7.83248 31.9371C7.57923 31.4965 7.4663 30.9891 7.50873 30.4826C7.55116 29.9762 7.74694 29.4947 8.06998 29.1023C8.39301 28.71 8.82796 28.4254 9.31684 28.2865L69.3168 10.0928C69.7443 9.97296 70.1959 9.96913 70.6253 10.0817C71.0548 10.1942 71.4465 10.4191 71.7602 10.7331C72.0739 11.0472 72.2984 11.4391 72.4105 11.8687C72.5226 12.2982 72.5183 12.7498 72.3981 13.1771Z" fill="rgb(62, 105, 220)" fill-opacity="0.2"/>
  <!-- Foreground icon -->
  <path d="M76.0372 11.4633C75.4085 10.835 74.6236 10.3856 73.7634 10.1615C72.9033 9.93741 71.9989 9.94667 71.1435 10.1883L71.0966 10.1883L11.1154 28.3883C10.1416 28.669 9.2761 29.2389 8.63355 30.0225C7.99101 30.8062 7.60175 31.7666 7.51737 32.7765C7.43298 33.7863 7.65746 34.798 8.16105 35.6774C8.66463 36.5568 9.42356 37.2625 10.3372 37.7008L36.8747 50.6258L49.781 77.1477C50.1824 78.0043 50.8206 78.7282 51.6203 79.2338C52.4199 79.7394 53.3475 80.0055 54.2935 80.0008C54.4372 80.0008 54.581 79.9946 54.7247 79.9821C55.7338 79.9004 56.6938 79.512 57.4758 78.8691C58.2578 78.2262 58.8245 77.3594 59.0997 76.3852L77.2872 16.404C77.2872 16.3883 77.2872 16.3727 77.2872 16.3571C77.532 15.5038 77.5453 14.6008 77.3256 13.7408C77.1059 12.8807 76.6612 12.0947 76.0372 11.4633ZM54.3216 74.954L54.306 74.9977L54.306 74.9758L41.7872 49.2571L56.7872 34.2571C57.2363 33.7844 57.4829 33.155 57.4746 32.5031C57.4662 31.8512 57.2036 31.2284 56.7426 30.7674C56.2816 30.3064 55.6587 30.0437 55.0068 30.0354C54.3549 30.027 53.7255 30.2737 53.2529 30.7227L38.2529 45.7227L12.5247 33.204L12.5029 33.204L12.5466 33.204L72.4997 15.0008L54.3216 74.954Z" fill="rgb(62, 105, 220)"/>
</svg>
