<svg xmlns="http://www.w3.org/2000/svg" width="80" height="80" viewBox="0 0 80 80" fill="none">
  <!-- Background shape (20% opacity) -->
  <path d="M57.5 22.5L57.5 42.5L40 52.5L22.5 42.5L22.5 22.5L40 12.5L57.5 22.5Z" fill="rgb(62, 105, 220)" fill-opacity="0.2"/>
  <!-- Foreground icon -->
  <path d="M72.5 15L72.5 27.5C72.5 28.163 72.2366 28.7989 71.7678 29.2678C71.2989 29.7366 70.663 30 70 30C69.337 30 68.7011 29.7366 68.2322 29.2678C67.7634 28.7989 67.5 28.163 67.5 27.5L67.5 17.5L57.5 17.5C56.837 17.5 56.2011 17.2366 55.7322 16.7678C55.2634 16.2989 55 15.663 55 15C55 14.337 55.2634 13.7011 55.7322 13.2322C56.2011 12.7634 56.837 12.5 57.5 12.5L70 12.5C70.663 12.5 71.2989 12.7634 71.7678 13.2322C72.2366 13.7011 72.5 14.337 72.5 15ZM22.5 62.5L12.5 62.5L12.5 52.5C12.5 51.837 12.2366 51.2011 11.7678 50.7322C11.2989 50.2634 10.663 50 10 50C9.33696 50 8.70107 50.2634 8.23223 50.7322C7.76339 51.2011 7.5 51.837 7.5 52.5L7.5 65C7.5 65.663 7.76339 66.2989 8.23223 66.7678C8.70107 67.2366 9.33696 67.5 10 67.5L22.5 67.5C23.163 67.5 23.7989 67.2366 24.2678 66.7678C24.7366 66.2989 25 65.663 25 65C25 64.337 24.7366 63.7011 24.2678 63.2322C23.7989 62.7634 23.163 62.5 22.5 62.5ZM70 50C69.337 50 68.7011 50.2634 68.2322 50.7322C67.7634 51.2011 67.5 51.837 67.5 52.5L67.5 62.5L57.5 62.5C56.837 62.5 56.2011 62.7634 55.7322 63.2322C55.2634 63.7011 55 64.337 55 65C55 65.663 55.2634 66.2989 55.7322 66.7678C56.2011 67.2366 56.837 67.5 57.5 67.5L70 67.5C70.663 67.5 71.2989 67.2366 71.7678 66.7678C72.2366 66.2989 72.5 65.663 72.5 65L72.5 52.5C72.5 51.837 72.2366 51.2011 71.7678 50.7322C71.2989 50.2634 70.663 50 70 50ZM10 30C10.663 30 11.2989 29.7366 11.7678 29.2678C12.2366 28.7989 12.5 28.163 12.5 27.5L12.5 17.5L22.5 17.5C23.163 17.5 23.7989 17.2366 24.2678 16.7678C24.7366 16.2989 25 15.663 25 15C25 14.337 24.7366 13.7011 24.2678 13.2322C23.7989 12.7634 23.163 12.5 22.5 12.5L10 12.5C9.33696 12.5 8.70107 12.7634 8.23223 13.2322C7.76339 13.7011 7.5 14.337 7.5 15L7.5 27.5C7.5 28.163 7.76339 28.7989 8.23223 29.2678C8.70107 29.7366 9.33696 30 10 30ZM58.75 52.1875L41.25 62.1875C40.8722 62.4035 40.4445 62.5171 40.0094 62.5171C39.5742 62.5171 39.1466 62.4035 38.7687 62.1875L21.25 52.1875C20.8666 51.9662 20.5489 51.6471 20.3293 51.2627C20.1097 50.8784 19.996 50.4426 20 50L20 30C19.996 29.5574 20.1097 29.1216 20.3293 28.7373C20.5489 28.3529 20.8666 28.0338 21.25 27.8125L38.75 17.8125C39.1278 17.5965 39.5555 17.4829 39.9906 17.4829C40.4258 17.4829 40.8534 17.5965 41.2313 17.8125L58.7313 27.8125C59.1146 28.0338 59.4323 28.3529 59.652 28.7373C59.8716 29.1216 59.9852 29.5574 59.9813 30L59.9813 50C59.9871 50.4408 59.8763 50.8753 59.6601 51.2595C59.4438 51.6437 59.1299 51.9638 58.75 52.1875ZM27.5375 30L40 37.1219L52.4625 30L40 22.8781L27.5375 30ZM25 48.55L37.5 55.6906L37.5 41.45L25 34.3094L25 48.55ZM55 48.55L55 34.3094L42.5 41.45L42.5 55.6906L55 48.55Z" fill="rgb(62, 105, 220)"/>
</svg>
