<svg xmlns="http://www.w3.org/2000/svg" width="80" height="80" viewBox="0 0 80 80" fill="none">
  <!-- Background pin (20% opacity) -->
  <path d="M55 32.5C55 55 30 72.5 30 72.5C30 72.5 5 55 5 32.5C5 25.8696 7.63392 19.5107 12.3223 14.8223C17.0107 10.1339 23.3696 7.5 30 7.5C36.6304 7.5 42.9893 10.1339 47.6777 14.8223C52.3661 19.5107 55 25.8696 55 32.5Z" fill="rgb(62, 105, 220)" fill-opacity="0.2"/>
  <!-- Foreground icon -->
  <path d="M40 7.5C32.7091 7.50827 25.7192 10.4082 20.5637 15.5637C15.4082 20.7192 12.5083 27.7091 12.5 35C12.5 44.8125 17.0344 55.2125 25.625 65.0781C29.4851 69.5361 33.8295 73.5505 38.5781 77.0469C38.9985 77.3413 39.4993 77.4993 40.0125 77.4993C40.5257 77.4993 41.0265 77.3413 41.4469 77.0469C46.1867 73.549 50.5228 69.5347 54.375 65.0781C62.9531 55.2125 67.5 44.8125 67.5 35C67.4917 27.7091 64.5918 20.7192 59.4363 15.5637C54.2808 10.4082 47.2909 7.50827 40 7.5ZM40 71.875C34.8344 67.8125 17.5 52.8906 17.5 35C17.5 29.0326 19.8705 23.3097 24.0901 19.0901C28.3097 14.8705 34.0326 12.5 40 12.5C45.9674 12.5 51.6903 14.8705 55.9099 19.0901C60.1295 23.3097 62.5 29.0326 62.5 35C62.5 52.8844 45.1656 67.8125 40 71.875ZM52.5 35C52.5 35.663 52.2366 36.2989 51.7678 36.7678C51.2989 37.2366 50.663 37.5 50 37.5L42.5 37.5L42.5 45C42.5 45.663 42.2366 46.2989 41.7678 46.7678C41.2989 47.2366 40.663 47.5 40 47.5C39.337 47.5 38.7011 47.2366 38.2322 46.7678C37.7634 46.2989 37.5 45.663 37.5 45L37.5 37.5L30 37.5C29.337 37.5 28.7011 37.2366 28.2322 36.7678C27.7634 36.2989 27.5 35.663 27.5 35C27.5 34.337 27.7634 33.7011 28.2322 33.2322C28.7011 32.7634 29.337 32.5 30 32.5L37.5 32.5L37.5 25C37.5 24.337 37.7634 23.7011 38.2322 23.2322C38.7011 22.7634 39.337 22.5 40 22.5C40.663 22.5 41.2989 22.7634 41.7678 23.2322C42.2366 23.7011 42.5 24.337 42.5 25L42.5 32.5L50 32.5C50.663 32.5 51.2989 32.7634 51.7678 33.2322C52.2366 33.7011 52.5 34.337 52.5 35Z" fill="rgb(62, 105, 220)"/>
</svg>
