<svg xmlns="http://www.w3.org/2000/svg" width="80" height="80" viewBox="0 0 80 80" fill="none">
  <!-- Background shape (20% opacity) -->
  <path d="M32.5 52.5C32.5 54.9723 31.7669 57.389 30.3934 59.4446C29.0199 61.5002 27.0676 63.1024 24.7835 64.0485C22.4995 64.9946 19.9861 65.2421 17.5614 64.7598C15.1366 64.2775 12.9093 63.087 11.1612 61.3388C9.41301 59.5907 8.22251 57.3634 7.74019 54.9386C7.25787 52.5139 7.50542 50.0005 8.45151 47.7165C9.39761 45.4324 10.9998 43.4802 13.0554 42.1066C15.111 40.7331 17.5277 40 20 40C23.3152 40 26.4946 41.317 28.8388 43.6612C31.183 46.0054 32.5 49.1848 32.5 52.5ZM60 40C57.5277 40 55.111 40.7331 53.0554 42.1066C50.9998 43.4802 49.3976 45.4324 48.4515 47.7165C47.5054 50.0005 47.2579 52.5139 47.7402 54.9386C48.2225 57.3634 49.413 59.5907 51.1612 61.3388C52.9093 63.087 55.1366 64.2775 57.5614 64.7598C59.9861 65.2421 62.4995 64.9946 64.7836 64.0485C67.0676 63.1024 69.0199 61.5002 70.3934 59.4446C71.7669 57.389 72.5 54.9723 72.5 52.5C72.5 49.1848 71.183 46.0054 68.8388 43.6612C66.4946 41.317 63.3152 40 60 40Z" fill="rgb(62, 105, 220)" fill-opacity="0.2"/>
  <!-- Foreground icon -->
  <path d="M76.625 42.4704C76.4163 41.8878 76.171 41.3189 75.8906 40.7672L62.8937 11.1985C62.7708 10.9137 62.5947 10.6549 62.375 10.436C61.4464 9.50716 60.3439 8.77036 59.1305 8.26767C57.9171 7.76498 56.6165 7.50625 55.3031 7.50625C53.9897 7.50625 52.6892 7.76498 51.4758 8.26767C50.2624 8.77036 49.1599 9.50716 48.2312 10.436C47.7641 10.9037 47.5011 11.5374 47.5 12.1985L47.5 20.011L37.5 20.011L37.5 12.1985C37.5003 11.8701 37.4358 11.5449 37.3103 11.2414C37.1849 10.9379 37.0008 10.6621 36.7688 10.4297C35.8401 9.50091 34.7376 8.76411 33.5242 8.26142C32.3108 7.75873 31.0103 7.5 29.6969 7.5C28.3835 7.5 27.0829 7.75873 25.8695 8.26142C24.6561 8.76411 23.5536 9.50091 22.625 10.4297C22.4053 10.6487 22.2292 10.9075 22.1063 11.1922L9.10938 40.761C8.82902 41.3127 8.58375 41.8815 8.37500 42.4641C7.63906 44.5233 7.36225 46.7185 7.56395 48.8959C7.76564 51.0733 8.44098 53.1803 9.54264 55.0692C10.6443 56.9582 12.1457 58.5834 13.9415 59.8311C15.7374 61.0788 17.7843 61.9187 19.9389 62.2921C22.0935 62.6654 24.3037 62.5632 26.4147 61.9925C28.5256 61.4218 30.4863 60.3965 32.1593 58.9883C33.8323 57.5802 35.1772 55.8232 36.0997 53.8407C37.0223 51.8581 37.5002 49.6977 37.5 47.511L37.5 25.011L47.5 25.011L47.5 47.511C47.4989 49.698 47.976 51.8588 48.898 53.8419C49.8199 55.8251 51.1644 57.5827 52.8371 58.9915C54.5099 60.4004 56.4705 61.4264 58.5815 61.9977C60.6926 62.569 62.903 62.6718 65.058 62.2988C67.213 61.9259 69.2603 61.0862 71.0566 59.8387C72.8528 58.5911 74.3546 56.9659 75.4566 55.0768C76.5586 53.1878 77.2341 51.0806 77.436 48.9029C77.6378 46.7252 77.361 44.5298 76.625 42.4704ZM26.4719 13.6829C27.3054 12.9811 28.3453 12.5707 29.4335 12.5143C30.5216 12.4579 31.5984 12.7585 32.5 13.3704L32.5 36.3422C30.5481 34.5896 28.1699 33.3807 25.6037 32.8366C23.0374 32.2925 20.3733 32.4324 17.8781 33.2422L26.4719 13.6829ZM22.5 57.511C20.5222 57.511 18.5888 56.9245 16.9443 55.8257C15.2998 54.7269 14.0181 53.1651 13.2612 51.3378C12.5043 49.5106 12.3063 47.4999 12.6921 45.5601C13.078 43.6203 14.0304 41.8385 15.4289 40.4399C16.8275 39.0414 18.6093 38.089 20.5491 37.7031C22.4889 37.3173 24.4996 37.5153 26.3268 38.2722C28.1541 39.0291 29.7159 40.3108 30.8147 41.9553C31.9135 43.5998 32.5 45.5332 32.5 47.511C32.5 50.1632 31.4464 52.7067 29.5711 54.5821C27.6957 56.4574 25.1522 57.511 22.5 57.511ZM52.5 13.3672C53.4016 12.7554 54.4784 12.4548 55.5665 12.5112C56.6547 12.5676 57.6946 12.9779 58.5281 13.6797L67.1219 33.236C64.6265 32.4266 61.9621 32.2872 59.3959 32.8318C56.8296 33.3764 54.4516 34.5859 52.5 36.3391L52.5 13.3672ZM62.5 57.511C60.5222 57.511 58.5888 56.9245 56.9443 55.8257C55.2998 54.7269 54.0181 53.1651 53.2612 51.3378C52.5043 49.5106 52.3063 47.4999 52.6921 45.5601C53.078 43.6203 54.0304 41.8385 55.4289 40.4399C56.8275 39.0414 58.6093 38.089 60.5491 37.7031C62.4889 37.3173 64.4996 37.5153 66.3268 38.2722C68.1541 39.0291 69.7159 40.3108 70.8147 41.9553C71.9135 43.5998 72.5 45.5332 72.5 47.511C72.5 50.1632 71.4464 52.7067 69.5711 54.5821C67.6957 56.4574 65.1522 57.511 62.5 57.511Z" fill="rgb(62, 105, 220)"/>
</svg>
