<svg xmlns="http://www.w3.org/2000/svg" width="80" height="80" viewBox="0 0 80 80" fill="none">
  <!-- Background shape (20% opacity) -->
  <path d="M67.5 50L67.5 65C67.5 65.663 67.2366 66.2989 66.7678 66.7678C66.2989 67.2366 65.663 67.5 65 67.5L15 67.5C14.337 67.5 13.7011 67.2366 13.2322 66.7678C12.7634 66.2989 12.5 65.663 12.5 65L12.5 50C12.5 49.337 12.7634 48.7011 13.2322 48.2322C13.7011 47.7634 14.337 47.5 15 47.5L65 47.5C65.663 47.5 66.2989 47.7634 66.7678 48.2322C67.2366 48.7011 67.5 49.337 67.5 50ZM40 27.5C41.9778 27.5 43.9112 26.9135 45.5557 25.8147C47.2002 24.7159 48.4819 23.1541 49.2388 21.3268C49.9957 19.4996 50.1937 17.4889 49.8079 15.5491C49.422 13.6093 48.4696 11.8275 47.0711 10.4289C45.6725 9.03041 43.8907 8.078 41.9509 7.69215C40.0111 7.3063 38.0004 7.50433 36.1732 8.26121C34.3459 9.01809 32.7841 10.2998 31.6853 11.9443C30.5865 13.5888 30 15.5222 30 17.5C30 20.1522 31.0536 22.6957 32.9289 24.5711C34.8043 26.4464 37.3478 27.5 40 27.5Z" fill="rgb(62, 105, 220)" fill-opacity="0.2"/>
  <!-- Foreground icon -->
  <path d="M65 47.5006L42.5 47.5006L42.5 32.2474C45.5351 31.6279 48.2321 29.9035 50.068 27.4085C51.9039 24.9135 52.748 21.8256 52.4367 18.7436C52.1254 15.6616 50.6807 12.805 48.3829 10.7276C46.085 8.6502 43.0977 7.5 40 7.5C36.9023 7.5 33.915 8.6502 31.6171 10.7276C29.3193 12.805 27.8746 15.6616 27.5633 18.7436C27.252 21.8256 28.0961 24.9135 29.932 27.4085C31.7679 29.9035 34.4649 31.6279 37.5 32.2474L37.5 47.5006L15 47.5006C13.6739 47.5006 12.4021 48.0274 11.4645 48.965C10.5268 49.9027 10 51.1745 10 52.5006L10 67.5006C10 68.8267 10.5268 70.0984 11.4645 71.0361C12.4021 71.9738 13.6739 72.5006 15 72.5006L65 72.5006C66.3261 72.5006 67.5979 71.9738 68.5355 71.0361C69.4732 70.0984 70 68.8267 70 67.5006L70 52.5006C70 51.1745 69.4732 49.9027 68.5355 48.965C67.5979 48.0274 66.3261 47.5006 65 47.5006ZM32.5 20.0006C32.5 18.5172 32.9399 17.0672 33.764 15.8338C34.5881 14.6004 35.7594 13.6391 37.1299 13.0715C38.5003 12.5038 40.0083 12.3553 41.4632 12.6447C42.918 12.9341 44.2544 13.6484 45.3033 14.6973C46.3522 15.7462 47.0665 17.0825 47.3559 18.5374C47.6453 19.9923 47.4968 21.5003 46.9291 22.8707C46.3614 24.2411 45.4001 25.4125 44.1668 26.2366C42.9334 27.0607 41.4834 27.5006 40 27.5006C38.0109 27.5006 36.1032 26.7104 34.6967 25.3039C33.2902 23.8974 32.5 21.9897 32.5 20.0006ZM65 67.5006L15 67.5006L15 52.5006L65 52.5006L65 67.5006ZM52.5 37.5006L62.5 37.5006C63.163 37.5006 63.7989 37.764 64.2678 38.2328C64.7366 38.7016 65 39.3375 65 40.0006C65 40.6636 64.7366 41.2995 64.2678 41.7683C63.7989 42.2372 63.163 42.5006 62.5 42.5006L52.5 42.5006C51.837 42.5006 51.2011 42.2372 50.7322 41.7683C50.2634 41.2995 50 40.6636 50 40.0006C50 39.3375 50.2634 38.7016 50.7322 38.2328C51.2011 37.764 51.837 37.5006 52.5 37.5006Z" fill="rgb(62, 105, 220)"/>
</svg>
