<svg xmlns="http://www.w3.org/2000/svg" width="80" height="80" viewBox="0 0 80 80" fill="none">
  <!-- Background circle (20% opacity) -->
  <path d="M50 20C50 21.9778 49.4135 23.9112 48.3147 25.5557C47.2159 27.2002 45.6541 28.4819 43.8268 29.2388C41.9996 29.9957 39.9889 30.1937 38.0491 29.8079C36.1093 29.422 34.3275 28.4696 32.9289 27.0711C31.5304 25.6725 30.578 23.8907 30.1922 21.9509C29.8063 20.0111 30.0043 18.0004 30.7612 16.1732C31.5181 14.3459 32.7998 12.7841 34.4443 11.6853C36.0888 10.5865 38.0222 10 40 10C42.6522 10 45.1957 11.0536 47.0711 12.9289C48.9464 14.8043 50 17.3478 50 20Z" fill="rgb(62, 105, 220)" fill-opacity="0.2"/>
  <!-- Foreground icon -->
  <path d="M37.5 32.2474L37.5 54.9974C37.5 55.6605 37.7634 56.2964 38.2322 56.7652C38.7011 57.2341 39.337 57.4974 40 57.4974C40.663 57.4974 41.2989 57.2341 41.7678 56.7652C42.2366 56.2964 42.5 55.6605 42.5 54.9974L42.5 32.2474C45.5351 31.6279 48.2321 29.9035 50.068 27.4085C51.9039 24.9135 52.748 21.8256 52.4367 18.7436C52.1254 15.6616 50.6807 12.805 48.3829 10.7276C46.085 8.6502 43.0977 7.5 40 7.5C36.9023 7.5 33.915 8.6502 31.6171 10.7276C29.3193 12.805 27.8746 15.6616 27.5633 18.7436C27.252 21.8256 28.0961 24.9135 29.932 27.4085C31.7679 29.9035 34.4649 31.6279 37.5 32.2474ZM40 12.4974C41.4834 12.4974 42.9334 12.9373 44.1668 13.7614C45.4001 14.5855 46.3614 15.7569 46.9291 17.1273C47.4968 18.4978 47.6453 20.0058 47.3559 21.4606C47.0665 22.9155 46.3522 24.2519 45.3033 25.3008C44.2544 26.3496 42.918 27.0639 41.4632 27.3533C40.0083 27.6427 38.5003 27.4942 37.1299 26.9265C35.7594 26.3589 34.5881 25.3976 33.764 24.1642C32.9399 22.9309 32.5 21.4808 32.5 19.9974C32.5 18.0083 33.2902 16.1007 34.6967 14.6942C36.1032 13.2876 38.0109 12.4974 40 12.4974ZM75 54.9974C75 64.7412 56.9656 69.9974 40 69.9974C23.0344 69.9974 5 64.7412 5 54.9974C5 52.5787 6.19062 49.0193 11.875 45.8068C15.7063 43.6381 20.975 41.9725 27.1156 40.9881C27.4404 40.9368 27.7722 40.95 28.0919 41.0269C28.4116 41.1038 28.7131 41.2429 28.979 41.4363C29.245 41.6297 29.4702 41.8736 29.6419 42.1541C29.8136 42.4345 29.9284 42.7461 29.9797 43.0709C30.031 43.3957 30.0178 43.7274 29.9409 44.0472C29.864 44.3669 29.7249 44.6683 29.5314 44.9343C29.338 45.2002 29.0941 45.4255 28.8137 45.5972C28.5332 45.7689 28.2217 45.8837 27.8969 45.9349C22.4156 46.8162 17.5844 48.3193 14.3281 50.1693C11.5781 51.7162 10 53.4787 10 54.9974C10 59.1724 21.4125 64.9974 40 64.9974C58.5875 64.9974 70 59.1724 70 54.9974C70 53.4787 68.4219 51.7162 65.6719 50.1568C62.4031 48.3068 57.5844 46.8037 52.1031 45.9225C51.7714 45.8791 51.4518 45.7697 51.1631 45.6005C50.8745 45.4314 50.6227 45.2061 50.4228 44.9379C50.2228 44.6697 50.0787 44.3641 49.999 44.0392C49.9192 43.7143 49.9055 43.3767 49.9587 43.0465C50.0118 42.7162 50.1307 42.3999 50.3083 42.1164C50.4859 41.8329 50.7185 41.5879 50.9925 41.396C51.2665 41.204 51.5762 41.069 51.9033 40.999C52.2305 40.9289 52.5683 40.9252 52.8969 40.9881C59.0375 41.9725 64.3062 43.6381 68.1375 45.8068C73.8094 49.0193 75 52.5787 75 54.9974Z" fill="rgb(62, 105, 220)"/>
</svg>
