<svg xmlns="http://www.w3.org/2000/svg" width="80" height="80" viewBox="0 0 80 80" fill="none">
  <!-- Background circle (20% opacity) -->
  <path d="M60 30C60 33.9556 58.827 37.8224 56.6294 41.1114C54.4318 44.4004 51.3082 46.9638 47.6537 48.4776C43.9992 49.9913 39.9778 50.3874 36.0982 49.6157C32.2186 48.844 28.6549 46.9392 25.8579 44.1421C23.0608 41.3451 21.156 37.7814 20.3843 33.9018C19.6126 30.0222 20.0087 26.0009 21.5224 22.3463C23.0362 18.6918 25.5996 15.5682 28.8886 13.3706C32.1776 11.173 36.0444 10 40 10C45.3043 10 50.3914 12.1071 54.1421 15.8579C57.8929 19.6086 60 24.6957 60 30Z" fill="rgb(62, 105, 220)" fill-opacity="0.2"/>
  <!-- Foreground icon -->
  <path d="M74.6939 68.7585C69.9345 60.5304 62.6001 54.6304 54.0407 51.8335C58.2746 49.3131 61.564 45.4725 63.4039 40.9016C65.2438 36.3307 65.5323 31.2823 64.2253 26.5315C62.9183 21.7807 60.0879 17.5904 56.1688 14.6039C52.2497 11.6174 47.4586 10 42.5314 10C37.6041 10 32.813 11.6174 28.8939 14.6039C24.9749 17.5904 22.1445 21.7807 20.8374 26.5315C19.5304 31.2823 19.819 36.3307 21.6588 40.9016C23.4987 45.4725 26.7881 49.3131 31.022 51.8335C22.4626 54.6273 15.1282 60.5273 10.3689 68.7585C10.1943 69.0431 10.0786 69.3598 10.0284 69.6898C9.97822 70.0199 9.99467 70.3566 10.0768 70.6802C10.1588 71.0038 10.3049 71.3077 10.5063 71.5739C10.7078 71.8401 10.9605 72.0633 11.2496 72.2303C11.5387 72.3973 11.8583 72.5047 12.1895 72.5462C12.5208 72.5876 12.857 72.5623 13.1783 72.4717C13.4996 72.3811 13.7996 72.2271 14.0604 72.0188C14.3212 71.8104 14.5377 71.5519 14.697 71.2585C20.5845 61.0835 30.9907 55.0085 42.5314 55.0085C54.072 55.0085 64.4782 61.0835 70.3657 71.2585C70.5251 71.5519 70.7415 71.8104 71.0023 72.0188C71.2632 72.2271 71.5631 72.3811 71.8844 72.4717C72.2057 72.5623 72.542 72.5876 72.8732 72.5462C73.2045 72.5047 73.5241 72.3973 73.8132 72.2303C74.1022 72.0633 74.355 71.8401 74.5564 71.5739C74.7578 71.3077 74.9039 71.0038 74.986 70.6802C75.0681 70.3566 75.0845 70.0199 75.0343 69.6898C74.9842 69.3598 74.8684 69.0431 74.6939 68.7585ZM25.0314 32.5085C25.0314 29.0473 26.0577 25.6639 27.9806 22.786C29.9036 19.9082 32.6367 17.6651 35.8344 16.3406C39.0321 15.0161 42.5508 14.6695 45.9454 15.3448C49.3401 16.02 52.4583 17.6867 54.9057 20.1341C57.3531 22.5816 59.0199 25.6998 59.6951 29.0944C60.3703 32.4891 60.0238 36.0078 58.6993 39.2055C57.3747 42.4032 55.1317 45.1363 52.2538 47.0592C49.376 48.9821 45.9925 50.0085 42.5314 50.0085C37.8916 50.0035 33.4433 48.1582 30.1625 44.8774C26.8817 41.5966 25.0363 37.1483 25.0314 32.5085Z" fill="rgb(62, 105, 220)"/>
</svg>
