<?xml version="1.0" encoding="UTF-8"?>
<svg id="Dark_1" data-name="Dark 1" xmlns="http://www.w3.org/2000/svg" xmlns:xlink="http://www.w3.org/1999/xlink" viewBox="0 0 198.43 198.43">
  <defs>
    <style>
      .cls-1 {
        fill: #3d64ad;
      }

      .cls-1, .cls-2, .cls-3, .cls-4, .cls-5, .cls-6, .cls-7, .cls-8, .cls-9, .cls-10, .cls-11, .cls-12, .cls-13 {
        stroke-width: 0px;
      }

      .cls-2 {
        fill: #354052;
      }

      .cls-3 {
        fill: #50b2b4;
      }

      .cls-4 {
        fill: url(#Unbenannter_Verlauf_142);
      }

      .cls-5 {
        fill: url(#Unbenannter_Verlauf_139);
      }

      .cls-6 {
        fill: #e6e9f0;
      }

      .cls-7 {
        fill: url(#Unbenannter_Verlauf_86);
      }

      .cls-8 {
        fill: url(#Unbenannter_Verlauf_85);
      }

      .cls-9 {
        fill: url(#Unbenannter_Verlauf_77);
      }

      .cls-10 {
        fill: url(#Unbenannter_Verlauf_91);
      }

      .cls-11 {
        fill: url(#Unbenannter_Verlauf_97);
      }

      .cls-12 {
        fill: url(#Unbenannter_Verlauf_68);
      }

      .cls-13 {
        fill: url(#Unbenannter_Verlauf_15);
      }
    </style>
    <linearGradient id="Unbenannter_Verlauf_86" data-name="Unbenannter Verlauf 86" x1="92.76" y1="72.94" x2="106.8" y2="72.94" gradientUnits="userSpaceOnUse">
      <stop offset="0" stop-color="#3d64ad"/>
      <stop offset=".38" stop-color="#3d6db1"/>
      <stop offset="1" stop-color="#3f86bf"/>
    </linearGradient>
    <linearGradient id="Unbenannter_Verlauf_97" data-name="Unbenannter Verlauf 97" x1="91.81" y1="88.05" x2="104.99" y2="56.99" gradientUnits="userSpaceOnUse">
      <stop offset="0" stop-color="#4ca3b1"/>
      <stop offset=".35" stop-color="#4790af"/>
      <stop offset="1" stop-color="#3d64ad"/>
    </linearGradient>
    <linearGradient id="Unbenannter_Verlauf_68" data-name="Unbenannter Verlauf 68" x1="78.03" y1="61.9" x2="118.64" y2="82.59" gradientUnits="userSpaceOnUse">
      <stop offset="0" stop-color="#52b2b5"/>
      <stop offset="1" stop-color="#3d64ad"/>
    </linearGradient>
    <linearGradient id="Unbenannter_Verlauf_77" data-name="Unbenannter Verlauf 77" x1="-4349.34" y1="135.76" x2="-4398.12" y2="49.63" gradientTransform="translate(4558.18 1.64) rotate(.11) scale(1.02 1) skewX(.22)" gradientUnits="userSpaceOnUse">
      <stop offset="0" stop-color="#52b2b5"/>
      <stop offset=".38" stop-color="#4ba4b8"/>
      <stop offset="1" stop-color="#3e84c0"/>
    </linearGradient>
    <linearGradient id="Unbenannter_Verlauf_15" data-name="Unbenannter Verlauf 15" x1="115.54" y1="63.16" x2="149.47" y2="121.93" gradientUnits="userSpaceOnUse">
      <stop offset="0" stop-color="#50b2b4"/>
      <stop offset=".08" stop-color="#4eacb4"/>
      <stop offset=".68" stop-color="#4185b9"/>
      <stop offset="1" stop-color="#3d76bb"/>
    </linearGradient>
    <linearGradient id="Unbenannter_Verlauf_85" data-name="Unbenannter Verlauf 85" x1="-1003.41" y1="-91.45" x2="-972.56" y2="-33" gradientTransform="translate(1053 115.62) rotate(-2.18)" gradientUnits="userSpaceOnUse">
      <stop offset="0" stop-color="#52b2b5"/>
      <stop offset=".08" stop-color="#50acb5"/>
      <stop offset=".68" stop-color="#4285b9"/>
      <stop offset="1" stop-color="#3d76bb"/>
    </linearGradient>
    <linearGradient id="Unbenannter_Verlauf_139" data-name="Unbenannter Verlauf 139" x1="102.26" y1="120.9" x2="144.91" y2="120.9" gradientUnits="userSpaceOnUse">
      <stop offset="0" stop-color="#3d64ad"/>
      <stop offset=".48" stop-color="#4584ae"/>
      <stop offset="1" stop-color="#4da5b0"/>
    </linearGradient>
    <linearGradient id="Unbenannter_Verlauf_142" data-name="Unbenannter Verlauf 142" x1="6880.75" y1="124.51" x2="6916.23" y2="124.51" gradientTransform="translate(6969.74) rotate(-180) scale(1 -1)" gradientUnits="userSpaceOnUse">
      <stop offset="0" stop-color="#3d64ad"/>
      <stop offset="1" stop-color="#4698b5"/>
    </linearGradient>
    <linearGradient id="Unbenannter_Verlauf_91" data-name="Unbenannter Verlauf 91" x1="82.14" y1="66.24" x2="86.11" y2="71.89" gradientTransform="translate(.95 57.21) rotate(1.23)" gradientUnits="userSpaceOnUse">
      <stop offset="0" stop-color="#3d64ad"/>
      <stop offset="1" stop-color="#3f86bf"/>
    </linearGradient>
  </defs>
  <rect class="cls-2" x="-5.67" y="-5.67" width="209.76" height="209.76"/>
  <g>
    <path class="cls-1" d="M96.76,77.47c-.33,0-.65-.15-.85-.44-.34-.47-.23-1.13.24-1.47,1.84-1.32,2.85-3.71,2.51-5.95-.09-.57.31-1.11.88-1.19.57-.09,1.11.31,1.19.88.45,3-.9,6.21-3.37,7.97-.19.13-.4.2-.61.2Z"/>
    <path class="cls-7" d="M99.77,82.82c-.32,0-.65-.12-.9-.37-.51-.5-.51-1.31-.02-1.81,4.36-4.44,5.21-8.1,5.22-8.14.1-.52.15-1.05.15-1.57.01-2.96-2-5.2-4.79-5.31-1.25-.05-2.45.42-3.24,1.25-.46.49-.99,1.34-.86,2.59.07.7-.44,1.33-1.14,1.41-.7.07-1.33-.44-1.41-1.14-.18-1.72.37-3.36,1.55-4.6,1.29-1.37,3.24-2.14,5.21-2.06,4.15.17,7.27,3.56,7.25,7.88,0,.67-.07,1.37-.21,2.07-.05.22-1.04,4.46-5.9,9.42-.25.26-.58.38-.91.38Z"/>
    <path class="cls-11" d="M98.23,90.64c-.47,0-.93-.21-1.23-.61-1.02-1.35-2.22-2.71-3.48-4.16-3.69-4.22-7.5-8.58-8.11-13.59-.51-4.22.85-8.73,3.55-11.77,2.62-2.96,6.37-4.52,10.83-4.52,6.77,0,14.05,4.99,14.05,15.93,0,.85-.69,1.55-1.55,1.55s-1.55-.69-1.55-1.55c0-6.18-3.43-12.84-10.96-12.84-3.6,0-6.47,1.17-8.52,3.48-2.13,2.4-3.19,5.98-2.79,9.35.49,4.06,3.98,8.06,7.36,11.93,1.3,1.49,2.53,2.9,3.62,4.33.52.68.38,1.65-.3,2.17-.28.21-.61.31-.93.31Z"/>
    <path class="cls-12" d="M100.8,101.49c-.36,0-.72-.13-1.02-.38-.64-.56-.71-1.54-.15-2.18.61-.7,1.78-1.92,3.25-3.45,4.4-4.59,11.76-12.27,14.08-16.44,1.48-2.67,2.18-5.29,2.18-8.24,0-3.12-.43-5.74-1.3-8-1.48-3.83-4.64-7.36-8.68-9.7-2.76-1.6-5.82-2.44-8.87-2.44-6.42,0-11.47,1.86-15.02,5.52-3.72,3.84-5.65,9.64-5.44,16.32.03.85-.64,1.57-1.5,1.6-.84.04-1.57-.64-1.6-1.5-.24-7.53,2-14.12,6.31-18.57,4.16-4.29,9.96-6.47,17.24-6.47,3.59,0,7.19.99,10.42,2.85,4.64,2.69,8.3,6.79,10.02,11.27,1.01,2.63,1.51,5.61,1.51,9.12s-.84,6.65-2.57,9.75c-2.51,4.52-9.76,12.07-14.55,17.07-1.44,1.51-2.59,2.7-3.15,3.35-.31.35-.74.53-1.17.53Z"/>
    <g>
      <circle class="cls-3" cx="79.34" cy="77.48" r=".92"/>
      <path class="cls-3" d="M79.34,78.62c-.09,0-.18-.01-.26-.03-.3-.07-.55-.25-.71-.51s-.21-.56-.14-.86c.07-.3.25-.55.51-.71.26-.16.56-.21.86-.14.3.07.55.25.71.51s.21.56.14.86h0c-.07.3-.25.55-.51.71-.18.11-.39.17-.6.17ZM79.34,76.78c-.13,0-.25.04-.37.1-.16.1-.27.25-.31.43-.04.18-.01.37.09.53s.25.27.43.31c.18.04.37.01.53-.09.16-.1.27-.25.31-.43h0c.04-.18.01-.37-.09-.53s-.25-.27-.43-.31c-.05-.01-.11-.02-.16-.02Z"/>
    </g>
    <g>
      <circle class="cls-3" cx="82.1" cy="83.07" r=".82"/>
      <path class="cls-3" d="M82.1,84.11c-.08,0-.16,0-.24-.03-.27-.06-.5-.23-.65-.47-.15-.24-.19-.52-.13-.79.13-.56.69-.91,1.26-.78.27.06.5.23.65.47.15.24.19.52.13.79h0c-.11.48-.54.81-1.02.81ZM82.1,82.46c-.27,0-.52.19-.59.46-.04.16-.01.32.07.46.08.14.22.23.37.27.32.08.65-.13.72-.45h0c.04-.16.01-.32-.07-.46-.08-.14-.22-.23-.37-.27-.05-.01-.09-.02-.14-.02Z"/>
    </g>
    <g>
      <circle class="cls-3" cx="85.75" cy="87.73" r=".72"/>
      <path class="cls-3" d="M85.75,88.68c-.07,0-.15,0-.22-.03-.51-.12-.82-.63-.7-1.14.06-.25.21-.45.42-.59s.47-.17.71-.12c.51.12.82.63.7,1.14h0c-.06.25-.21.45-.42.59-.15.09-.32.14-.5.14ZM85.75,87.23c-.09,0-.18.03-.26.08-.11.07-.19.18-.22.31-.06.27.1.54.37.61.13.03.27,0,.38-.06.11-.07.19-.18.23-.31h0c.06-.27-.1-.54-.37-.61-.04,0-.08-.01-.12-.01Z"/>
    </g>
    <g>
      <circle class="cls-3" cx="89.55" cy="91.8" r=".6"/>
      <path class="cls-3" d="M89.55,92.62c-.06,0-.12,0-.19-.02-.44-.1-.72-.55-.61-.99.1-.44.55-.72.99-.61.21.05.4.18.51.37s.15.41.1.62h0c-.09.38-.43.63-.8.63ZM89.55,91.42c-.17,0-.33.12-.37.29-.05.2.08.41.28.46.2.05.41-.08.46-.28h0c.05-.2-.08-.41-.28-.46-.03,0-.06,0-.09,0Z"/>
    </g>
    <g>
      <circle class="cls-3" cx="93.03" cy="95.74" r=".43"/>
      <path class="cls-3" d="M93.03,96.39s-.1,0-.15-.02c-.35-.08-.57-.43-.48-.78.08-.35.43-.57.78-.48.35.08.57.43.48.78-.07.3-.34.5-.63.5ZM93.03,95.53c-.09,0-.18.06-.2.16-.03.11.04.22.15.25.11.03.22-.04.25-.15.03-.11-.04-.22-.15-.25-.02,0-.03,0-.05,0Z"/>
    </g>
    <path class="cls-9" d="M120.66,135.98c-.4,0-.79-.15-1.1-.46-2.52-2.52-5.03-5.05-7.53-7.59-6.06-6.12-11.37-11.51-16.24-16.5-5.77-5.91-10.58-10.85-15.44-16.06-5.39-5.79-11.86-15.04-12.05-26.29-.15-9.08,4.3-18.01,11.89-23.89,1.64-1.27,3.41-2.38,5.26-3.29l.15-.07c4.18-2.04,8.93-3.16,13.73-3.24h.03s.03,0,.03,0c4.8.1,9.55,1.23,13.74,3.29,8.88,4.36,15.28,12.72,17.13,22.37,1.58,8.26-.1,15.66-5.16,22.61-2.62,3.61-5.65,6.92-8.57,10.12-1.53,1.67-3.11,3.4-4.6,5.14-.56.65-1.53.72-2.18.17-.65-.56-.72-1.53-.17-2.18,1.52-1.78,3.12-3.52,4.66-5.21,2.87-3.14,5.83-6.38,8.35-9.85,4.59-6.31,6.06-12.74,4.62-20.21-1.67-8.71-7.45-16.25-15.46-20.18-3.78-1.85-8.07-2.88-12.41-2.97-4.34.07-8.63,1.08-12.4,2.92l-.14.07c-1.66.82-3.26,1.82-4.73,2.96-6.83,5.28-10.82,13.28-10.69,21.39.09,5.66,2.11,14.47,11.22,24.23,4.84,5.19,9.63,10.11,15.39,16.01,4.87,4.98,10.18,10.38,16.23,16.49,2.51,2.53,5.01,5.06,7.53,7.58.6.61.6,1.58,0,2.19-.3.3-.7.45-1.09.45Z"/>
    <path class="cls-13" d="M136.17,129.36c-.4,0-.8-.16-1.11-.47-2.66-2.71-5.42-5.3-8.1-7.8-2.72-2.53-5.52-5.15-8.23-7.92-1.95-2-2.45-5.06-1.29-8,.87-2.2,2.39-3.91,3.86-5.55.26-.29.52-.58.77-.87l1.1-1.26c1.29-1.47,2.63-3,3.88-4.53,2.6-3.17,5.79-7.43,7.4-12.33,2.36-7.19,2.17-15.78-.52-23.55l-.09-.25c-.32-.91-.42-1.22-.85-2.14-.36-.78-.02-1.7.76-2.05.77-.36,1.7-.02,2.05.76.49,1.06.64,1.49.96,2.42l.09.25c2.95,8.52,3.15,17.59.54,25.53-1.77,5.39-5.18,9.95-7.95,13.33-1.29,1.57-2.64,3.11-3.95,4.6l-1.09,1.25c-.26.3-.53.6-.8.9-1.35,1.51-2.63,2.94-3.29,4.62-.55,1.4-.68,3.37.63,4.7,2.66,2.72,5.44,5.31,8.13,7.82,2.7,2.52,5.5,5.13,8.2,7.89.6.61.59,1.59-.02,2.19-.3.29-.69.44-1.08.44Z"/>
    <path class="cls-8" d="M62.49,129.36c-.39,0-.78-.15-1.08-.44-.61-.6-.62-1.58-.02-2.19,2.71-2.77,5.5-5.37,8.2-7.9,2.69-2.51,5.47-5.11,8.13-7.82,1.3-1.33,1.18-3.3.63-4.7-.68-1.71-1.97-3.15-3.34-4.68-.3-.34-.6-.67-.9-1.01-1.72-1.98-3.54-4.11-5.22-6.3-4-5.22-6.49-9.87-7.83-14.63-2.15-7.64-1.89-16.03.75-23.63l.08-.24c.32-.94.47-1.37.96-2.43.36-.78,1.28-1.11,2.05-.76.78.36,1.11,1.28.76,2.05-.43.92-.53,1.23-.85,2.14l-.08.24c-2.43,7.01-2.68,14.74-.69,21.77,1.23,4.37,3.55,8.68,7.31,13.58,1.63,2.13,3.42,4.21,5.1,6.15.28.32.57.65.86.97,1.49,1.66,3.03,3.38,3.91,5.61,1.16,2.93.66,6-1.29,8-2.71,2.77-5.51,5.39-8.23,7.92-2.68,2.5-5.45,5.08-8.1,7.8-.3.31-.7.47-1.11.47Z"/>
    <path class="cls-5" d="M136.37,137c-1.73,0-3.43-.46-4.82-1.34-1.14-.72-2.14-1.67-3.12-2.58-.19-.18-.38-.36-.57-.53-2.22-2.06-24.22-24.17-25.16-25.11-.6-.61-.6-1.59,0-2.19.61-.6,1.58-.6,2.19,0,.23.23,22.89,23.01,25.04,25,.21.19.41.38.6.56.87.82,1.77,1.66,2.66,2.22,1.47.93,3.51,1.13,5.33.5,1.71-.59,2.84-1.92,3.17-3.74.27-1.48.04-3.01-.62-4.18-.55-.96-1.35-1.8-2.27-2.72-.6-.6-.6-1.58,0-2.19.6-.6,1.58-.61,2.19,0,1.04,1.04,2.04,2.08,2.78,3.38,1.04,1.82,1.38,4.05.98,6.27-.53,2.93-2.43,5.16-5.21,6.11-1.02.35-2.1.53-3.17.53Z"/>
    <path class="cls-4" d="M62.05,137c-1.07,0-2.15-.17-3.17-.53-2.77-.96-4.67-3.19-5.21-6.11-.41-2.22-.06-4.44.98-6.26.74-1.3,1.73-2.34,2.78-3.38.6-.6,1.58-.6,2.19,0,.6.6.6,1.58,0,2.19-.92.92-1.73,1.76-2.27,2.72-.67,1.17-.89,2.7-.62,4.18.33,1.82,1.46,3.15,3.17,3.74,1.81.63,3.85.43,5.33-.5.89-.57,1.79-1.41,2.66-2.22.2-.18.39-.37.58-.54,1.06-.98,7.41-7.3,17.89-17.81.6-.6,1.58-.61,2.19,0,.61.6.61,1.58,0,2.19-7.43,7.45-16.58,16.61-17.96,17.88-.21.19-.4.37-.59.55-.97.91-1.98,1.86-3.12,2.58-1.39.88-3.09,1.34-4.82,1.34Z"/>
    <path class="cls-10" d="M77.28,136.13c-.39,0-.77-.14-1.07-.43-.61-.59-.63-1.57-.04-2.19l12.57-13.03c.59-.62,1.57-.63,2.19-.04.61.59.63,1.57.04,2.19l-12.57,13.03c-.3.31-.71.47-1.11.47Z"/>
    <g>
      <circle class="cls-3" cx="71.78" cy="41.79" r=".53"/>
      <path class="cls-3" d="M71.78,42.76c-.11,0-.22-.02-.33-.06-.51-.18-.77-.74-.59-1.24.18-.51.74-.77,1.24-.59.24.09.44.26.55.5.11.23.12.5.04.74-.09.25-.26.44-.5.55-.13.06-.27.09-.42.09ZM71.79,41.7s-.08.02-.09.06c-.02.05,0,.1.05.11.04.01.1-.01.11-.05.01-.04-.01-.1-.05-.11,0,0-.01,0-.02,0Z"/>
    </g>
    <g>
      <circle class="cls-3" cx="77.82" cy="37.02" r=".62"/>
      <path class="cls-3" d="M77.82,38.09c-.16,0-.31-.03-.46-.1-.26-.12-.45-.34-.55-.6-.1-.27-.08-.56.04-.81.12-.26.34-.45.6-.55.27-.1.56-.08.81.04.26.12.45.34.55.6.1.27.08.56-.04.81-.12.26-.34.45-.6.55-.12.04-.24.06-.36.06ZM77.82,36.84s-.04,0-.06.01c-.06.02-.09.07-.1.09-.01.03-.03.08,0,.14s.07.09.09.1c.03.01.08.03.14,0,.06-.02.09-.07.1-.09.01-.03.03-.08,0-.14s-.07-.09-.09-.1c-.02,0-.04-.02-.08-.02Z"/>
    </g>
    <g>
      <circle class="cls-3" cx="84.25" cy="33.65" r=".72"/>
      <path class="cls-3" d="M84.25,34.82c-.13,0-.26-.02-.39-.07-.29-.1-.53-.32-.66-.6-.13-.28-.15-.6-.04-.89.22-.61.89-.92,1.49-.71.61.22.92.88.71,1.49-.17.48-.62.78-1.1.78ZM84.25,33.37c-.12,0-.23.07-.27.19-.03.07-.02.15.01.22s.09.12.16.15h0c.15.05.31-.02.36-.17.05-.15-.02-.31-.17-.36-.03-.01-.06-.02-.09-.02Z"/>
    </g>
    <g>
      <circle class="cls-3" cx="91.7" cy="31.66" r=".82"/>
      <path class="cls-3" d="M91.69,32.92c-.23,0-.47-.06-.68-.2-.59-.37-.76-1.16-.39-1.75.37-.59,1.16-.76,1.75-.39.59.37.76,1.16.39,1.75-.24.38-.65.59-1.07.59ZM91.7,31.28c-.13,0-.25.06-.32.18-.11.18-.06.41.12.53.18.11.41.06.53-.12.11-.18.06-.41-.12-.53-.06-.04-.13-.06-.2-.06Z"/>
    </g>
    <g>
      <circle class="cls-3" cx="99.17" cy="30.79" r=".92"/>
      <path class="cls-3" d="M99.17,32.15c-.15,0-.31-.03-.46-.08h0c-.71-.25-1.08-1.03-.82-1.74.12-.34.37-.62.7-.77.33-.16.7-.17,1.04-.05.71.25,1.08,1.03.82,1.74-.12.34-.37.62-.7.77-.18.09-.38.13-.58.13ZM99.17,30.31c-.2,0-.38.12-.45.32-.09.25.04.52.29.61h0c.12.04.25.04.36-.02.11-.05.2-.15.24-.27.09-.25-.04-.52-.29-.61-.05-.02-.11-.03-.16-.03Z"/>
    </g>
    <g>
      <circle class="cls-3" cx="106.54" cy="31.66" r=".82"/>
      <path class="cls-3" d="M106.54,32.92c-.09,0-.19,0-.28-.03-.33-.07-.61-.27-.79-.56s-.24-.62-.17-.95.27-.61.56-.79c.59-.37,1.37-.2,1.75.39.37.59.2,1.37-.39,1.75-.21.13-.44.2-.68.2ZM106.54,31.28c-.07,0-.14.02-.2.06-.09.05-.15.14-.17.24-.02.1,0,.2.05.29.05.09.14.15.24.17.1.02.2,0,.29-.05.18-.11.23-.35.12-.53-.07-.11-.2-.18-.32-.18Z"/>
    </g>
    <g>
      <circle class="cls-3" cx="113.98" cy="33.65" r=".72"/>
      <path class="cls-3" d="M113.99,34.82c-.48,0-.93-.3-1.1-.78-.22-.61.1-1.27.71-1.49.61-.22,1.27.1,1.49.71.22.61-.1,1.27-.71,1.49h0c-.13.05-.26.07-.39.07ZM113.98,33.37s-.06,0-.09.02c-.15.05-.22.21-.17.36s.21.22.36.17c.15-.05.22-.21.17-.36-.03-.07-.08-.13-.15-.16-.04-.02-.08-.03-.12-.03Z"/>
    </g>
    <g>
      <circle class="cls-3" cx="120.41" cy="37.02" r=".62"/>
      <path class="cls-3" d="M120.42,38.08c-.44,0-.85-.27-1-.71-.2-.55.09-1.16.65-1.36.27-.1.56-.08.81.04.26.12.45.34.55.6.2.55-.09,1.16-.64,1.36h0c-.12.04-.24.06-.36.06ZM120.41,36.84s-.04,0-.06.01c-.09.03-.14.14-.11.23.03.09.13.14.23.11.09-.03.14-.14.11-.23-.02-.06-.07-.09-.09-.1-.02,0-.04-.02-.08-.02Z"/>
    </g>
    <g>
      <circle class="cls-3" cx="126.45" cy="41.79" r=".53"/>
      <path class="cls-3" d="M126.45,42.76c-.4,0-.78-.25-.92-.65-.09-.24-.07-.51.04-.74.11-.23.31-.41.55-.5.24-.09.51-.07.74.04.24.11.41.31.5.55.09.24.07.51-.04.74-.11.23-.31.41-.55.5-.11.04-.22.06-.33.06ZM126.45,41.7s-.02,0-.02,0c-.04.01-.07.07-.05.11.01.04.07.07.11.05.04-.01.07-.07.05-.11-.01-.03-.05-.06-.09-.06Z"/>
    </g>
  </g>
  <g>
    <path class="cls-6" d="M64.22,164.67c-.56.33-1.27.49-2.11.49-2.11-.03-3.18-1.09-3.21-3.18,0-.91.24-1.68.72-2.3.48-.61,1.19-.93,2.13-.94,1.12,0,1.9.35,2.33,1.04.41.68.6,1.57.6,2.67h-4.24c.04.49.22.87.54,1.13.32.28.72.42,1.22.42.39,0,.75-.06,1.1-.19.33-.11.65-.25.94-.43v1.3ZM63.15,161.35c-.02-.41-.12-.74-.32-1.01-.21-.28-.53-.42-.98-.43-.44,0-.77.14-1.01.41-.24.27-.37.62-.41,1.04h2.72Z"/>
    <path class="cls-6" d="M65.96,156.24h1.6v1.53h-1.6v-1.53ZM65.96,158.88h1.6v6.14h-1.6v-6.14Z"/>
    <path class="cls-6" d="M69.52,159.2c.68-.3,1.39-.46,2.13-.46,1.79-.02,2.67.84,2.65,2.59v.79c0,.6,0,1.11.02,1.54.02.45.04.91.07,1.37h-1.41c-.05-.37-.07-.68-.07-.92h-.02c-.19.33-.46.59-.8.78-.35.19-.71.29-1.1.29-.56,0-1.04-.17-1.47-.48-.45-.31-.67-.76-.68-1.35,0-.46.1-.83.31-1.12.19-.29.44-.5.74-.63.32-.15.66-.25,1.01-.3.37-.04.71-.06,1.05-.06h.88c0-.49-.11-.84-.33-1.04-.22-.19-.57-.29-1.05-.29-.7,0-1.33.23-1.89.67l-.05-1.37ZM70.37,163.24c0,.25.1.44.3.56.18.13.42.19.71.19.49,0,.87-.19,1.12-.55.23-.36.34-.78.33-1.26h-.96c-.1,0-.19,0-.29.02-.21.02-.4.07-.58.14-.18.07-.33.18-.44.32-.13.14-.19.33-.19.57Z"/>
    <path class="cls-6" d="M75.84,158.88h1.49v.86h.02c.26-.37.56-.64.88-.79.33-.14.64-.21.94-.21.86,0,1.46.35,1.81,1.08.2-.37.48-.65.83-.82.34-.17.7-.26,1.08-.26.75,0,1.26.23,1.55.68.27.45.4,1.02.39,1.73v3.87h-1.6v-3.66c0-.31-.03-.61-.11-.91-.06-.14-.14-.26-.26-.35-.13-.09-.31-.13-.55-.13-.26,0-.47.07-.62.2-.17.13-.29.31-.37.52-.08.21-.13.42-.16.66-.03.25-.05.47-.05.68v2.98h-1.6v-3.66c0-.31-.03-.61-.11-.91-.06-.14-.14-.26-.26-.35-.13-.09-.31-.13-.55-.13-.26,0-.47.07-.62.2-.17.13-.29.31-.37.52-.08.21-.13.42-.16.66-.03.25-.05.47-.05.68v2.98h-1.6v-6.14Z"/>
    <path class="cls-6" d="M86.46,163.35h1.67v1.67h-1.67v-1.67Z"/>
    <path class="cls-6" d="M90.05,159.2c.68-.3,1.39-.46,2.13-.46,1.79-.02,2.67.84,2.65,2.59v.79c0,.6,0,1.11.02,1.54.02.45.04.91.07,1.37h-1.41c-.05-.37-.07-.68-.07-.92h-.02c-.19.33-.46.59-.8.78-.35.19-.71.29-1.1.29-.56,0-1.04-.17-1.47-.48-.45-.31-.67-.76-.68-1.35,0-.46.1-.83.31-1.12.19-.29.44-.5.74-.63.32-.15.66-.25,1.01-.3.37-.04.71-.06,1.05-.06h.88c0-.49-.11-.84-.33-1.04-.22-.19-.57-.29-1.05-.29-.7,0-1.33.23-1.89.67l-.05-1.37ZM90.91,163.24c0,.25.1.44.3.56.18.13.42.19.71.19.49,0,.87-.19,1.12-.55.23-.36.34-.78.33-1.26h-.96c-.1,0-.19,0-.29.02-.21.02-.4.07-.58.14-.18.07-.33.18-.44.32-.13.14-.19.33-.19.57Z"/>
    <path class="cls-6" d="M100.49,164.33h-.02c-.49.56-1.12.84-1.88.83-.93-.02-1.59-.34-1.99-.99-.4-.63-.59-1.37-.58-2.24,0-.87.19-1.62.58-2.24.4-.62,1.06-.94,1.99-.95.77,0,1.38.29,1.83.86h.02v-3.52h1.6v8.94h-1.55v-.69ZM97.68,161.93c0,.45.09.88.29,1.31.1.19.24.35.42.48.17.13.38.2.64.2.28,0,.5-.07.68-.2.18-.13.33-.29.43-.48.11-.2.19-.41.24-.64.04-.23.06-.45.06-.67,0-.46-.11-.89-.32-1.3-.12-.2-.27-.36-.44-.48-.18-.12-.41-.18-.67-.18-.5.02-.85.23-1.05.66-.1.19-.16.4-.2.63-.05.23-.07.45-.07.67Z"/>
    <path class="cls-6" d="M103.67,158.88h1.49v.86h.02c.26-.37.56-.64.88-.79.33-.14.64-.21.94-.21.86,0,1.46.35,1.81,1.08.2-.37.48-.65.83-.82.34-.17.7-.26,1.08-.26.75,0,1.26.23,1.55.68.27.45.4,1.02.39,1.73v3.87h-1.6v-3.66c0-.31-.03-.61-.11-.91-.06-.14-.14-.26-.26-.35-.13-.09-.31-.13-.55-.13-.26,0-.47.07-.62.2-.17.13-.29.31-.37.52-.08.21-.13.42-.16.66-.03.25-.05.47-.05.68v2.98h-1.6v-3.66c0-.31-.03-.61-.11-.91-.06-.14-.14-.26-.26-.35-.13-.09-.31-.13-.55-.13-.26,0-.47.07-.62.2-.17.13-.29.31-.37.52-.08.21-.13.42-.16.66-.03.25-.05.47-.05.68v2.98h-1.6v-6.14Z"/>
    <path class="cls-6" d="M114.32,156.24h1.6v1.53h-1.6v-1.53ZM114.32,158.88h1.6v6.14h-1.6v-6.14Z"/>
    <path class="cls-6" d="M117.6,158.88h1.51v.83h.02c.51-.66,1.18-.99,2.01-.98.72,0,1.26.23,1.6.68.33.45.49,1.02.49,1.73v3.87h-1.6v-3.28c0-.2,0-.4-.01-.61,0-.21-.05-.39-.12-.56-.06-.18-.16-.33-.3-.44-.15-.1-.35-.16-.61-.16-.29,0-.52.07-.69.2-.17.13-.32.31-.43.51-.1.21-.17.43-.21.66-.05.24-.07.46-.07.67v3h-1.6v-6.14Z"/>
    <path class="cls-6" d="M124.88,163.35h1.67v1.67h-1.67v-1.67Z"/>
    <path class="cls-6" d="M132.18,160.2c-.14-.07-.29-.13-.45-.17-.17-.04-.39-.06-.63-.06-.49,0-.88.18-1.17.52-.3.35-.45.82-.45,1.42s.14,1.04.42,1.42c.27.38.68.58,1.24.58.23,0,.46-.04.69-.11.22-.06.4-.12.54-.18l.07,1.32c-.22.07-.46.12-.71.14-.25.04-.55.06-.88.06-1,0-1.75-.32-2.25-.93-.52-.6-.78-1.37-.78-2.31s.26-1.67.78-2.26c.51-.6,1.24-.91,2.19-.92.62,0,1.14.07,1.55.2l-.14,1.26Z"/>
    <path class="cls-6" d="M133.49,156.08h1.6v3.64h.02c.43-.64,1.07-.96,1.93-.98.72,0,1.26.23,1.6.68.33.45.49,1.02.49,1.73v3.87h-1.6v-3.28c0-.2,0-.4-.01-.61,0-.21-.05-.39-.12-.56-.06-.18-.16-.33-.3-.44-.15-.1-.35-.16-.61-.16-.29,0-.52.07-.69.2-.17.13-.32.31-.43.51-.1.21-.17.43-.21.66-.05.24-.07.46-.07.67v3h-1.6v-8.94Z"/>
  </g>
</svg>